<?xml version="1.0" standalone="no"?><!DOCTYPE svg PUBLIC "-//W3C//DTD SVG 1.1//EN" "http://www.w3.org/Graphics/SVG/1.1/DTD/svg11.dtd"><svg t="1533533774264" class="icon" style="" viewBox="0 0 1024 1024" version="1.1" xmlns="http://www.w3.org/2000/svg" p-id="3258" xmlns:xlink="http://www.w3.org/1999/xlink" width="128" height="128"><defs><style type="text/css"></style></defs><path d="M270.885012 96.861048l0 0 0 0 0 0 0 0Z" p-id="3259" fill="#dd9e58"></path><path d="M512.571517 65.907059c-204.736964 0-370.715183 165.979242-370.715183 370.724393 0 94.440929 35.320437 180.625824 93.462648 246.083651 1.572822 2.690272 3.50994 5.225001 5.817496 7.531534l240.297878 251.597225c1.279133 1.864464 2.736321 3.64297 4.393054 5.298679 2.111081 2.111081 4.418636 3.90596 6.856152 5.402033 14.458293 10.06524 34.491559 8.658194 47.393403-4.242627 3.26537-3.263323 5.78782-6.987135 7.582699-10.960633L783.610536 690.24766c1.867534-1.866511 3.489474-3.88447 4.876054-6.010901 58.951647-65.640999 94.819552-152.431691 94.819552-247.604284C883.305119 231.886301 717.325877 65.907059 512.571517 65.907059zM512.390391 588.611865c-82.734306 0-149.814074-67.087954-149.814074-149.842727 0-82.753749 67.079768-149.833517 149.814074-149.833517 82.772168 0 149.851936 67.079768 149.851936 149.833517C662.242328 521.523911 595.161536 588.611865 512.390391 588.611865z" p-id="3260" fill="#dd9e58"></path></svg>